<svg width="1259" height="614" viewBox="0 0 1259 614" fill="none" xmlns="http://www.w3.org/2000/svg">
<path d="M340.799 234.133C338.933 235.866 338.666 242.933 338.666 290.666V345.2L341.599 347.2C345.599 350 360.933 350 364.666 347.2C367.066 345.466 367.466 343.2 367.999 325.866L368.666 306.4L398.933 306.666C427.733 306.8 429.333 306.666 431.999 304C433.866 302.133 434.666 299.6 434.666 295.466C434.666 285.333 434.799 285.333 399.199 285.333H367.999V269.333V253.333H405.866C443.599 253.333 443.866 253.333 445.866 250.4C447.066 248.8 447.999 245.333 447.999 242.666C447.999 240 447.066 236.533 445.866 234.933L443.866 232H393.333C349.199 232 342.533 232.266 340.799 234.133Z" fill="black"/>
<path d="M769.2 275.6C769.066 299.6 769.2 321.467 769.333 324C769 332.667 774.566 338.633 776 340.5C777.434 342.367 784.4 347.6 790.533 349.333C796.533 350.933 814.933 351.067 821.866 349.333C828 348 829.333 346.267 829.333 339.867C829.333 332.8 827.066 331.6 816 332.667C807.2 333.6 806.266 333.333 802 330.133C796 325.467 794.666 320.267 794.666 299.733V282.8L808.4 282.4L822 282L822.4 274.667C822.933 264.933 821.466 264 806.4 264H794.8L794.4 248.267L794 232.667L781.733 232.267L769.333 231.867L769.2 275.6Z" fill="black"/>
<path d="M1136 233.867C1135.07 235.2 1134.53 240.267 1134.8 248.933C1135.07 257.467 1134.67 261.867 1133.73 261.733C1106.13 256.267 1091.07 258.4 1080.13 269.333C1069.73 279.733 1068.67 283.067 1068.67 304.667C1068.67 321.733 1068.93 323.867 1071.87 329.2C1075.87 336.8 1083.07 343.6 1090.67 347.2C1095.2 349.333 1099.33 350 1108 350C1118 350 1120.4 349.467 1128.4 345.733C1136.53 341.867 1137.33 341.733 1137.33 344C1137.33 347.733 1141.33 349.333 1150.53 349.333C1163.47 349.333 1162.67 353.333 1162.67 290.133C1162.67 249.2 1162.27 234.8 1161.07 233.6C1158.67 231.2 1138.13 231.467 1136 233.867ZM1126.27 277.467C1130.93 278.267 1134.67 279.6 1134.67 280.533C1134.8 281.333 1134.8 291.6 1134.67 303.333C1134.67 320.4 1135.5 322.5 1132.67 326.133C1130.7 328.65 1127.6 328.8 1125.47 330C1120.13 332.667 1108.8 332.533 1104 329.867C1098.8 326.667 1095.73 319.6 1094.93 308.533C1093.87 291.333 1098.93 279.6 1108.27 277.333C1114.67 275.867 1116.8 275.867 1126.27 277.467Z" fill="black"/>
<path d="M501.066 260.533C497.599 261.466 492.266 263.866 489.066 266C485.866 268.133 483.066 269.733 482.666 269.6C482.266 269.466 481.733 267.466 481.333 265.066L480.666 260.666L468.799 260.266C460.133 260 456.533 260.4 455.733 261.6C453.999 264.533 454.399 345.866 456.266 347.733C458.266 349.733 475.199 349.866 478.799 348C481.199 346.666 481.333 344.933 481.333 318.666C481.333 301.2 480.666 293.5 482.666 290.5C484.666 287.5 487.933 283.5 490.5 282C493.067 280.5 495.433 279.333 498 278.8C500.567 278.266 502.133 278.133 509.466 278.4L522.666 278.8V268.8V258.666L515.066 258.8C510.799 258.8 504.533 259.6 501.066 260.533Z" fill="black"/>
<path d="M570.666 259.334C565 259.5 557.5 262.5 557.5 262.5C557.5 262.5 547.199 267.867 541.199 276C535.599 283.467 534.133 290 534.133 305.467C534.266 318.267 534.666 320.534 537.866 327.2C545.066 341.734 558.533 349.334 579.599 350.4C589.466 350.8 593.599 350.4 600.933 348.267C611.066 345.067 614.366 342.2 615.5 341.5C616.634 340.8 618.399 339.467 619.599 338.534C623.199 335.467 627.034 328.966 628 326.5C628.966 324.034 630.666 318.667 630.666 303.2C630.666 289.867 630.266 287.734 627.199 281.867C622.533 273.067 616.799 267.2 608.533 263.2C602.799 260.4 599.199 259.734 587.199 259.334C579.199 259.067 576.332 259.167 570.666 259.334ZM596.666 280.134C602.399 285.2 604.399 291.867 604.266 305.6C604.266 312.667 604.367 318.233 602.5 322.5C601.033 325.833 600.334 327.7 597.5 329.5C593.677 331.928 590.133 332.8 583.199 333.067C576.266 333.334 568.133 328.4 568.133 328.4C564.133 324.4 562.666 321.6 561.333 315.334C558.133 299.6 562.399 282.4 570.666 277.867C572.533 276.934 577.999 276.134 582.933 276C591.066 276 592.266 276.4 596.666 280.134Z" fill="black"/>
<path d="M695.867 259.867C693.2 260.4 687.867 263.067 684.134 265.733L677.334 270.667V266.8C677.334 260.933 674.934 259.867 662.4 260.267L651.334 260.667L650.934 303.2C650.667 333.467 651.067 346.267 652.134 347.467C654.267 350.133 673.734 350 675.867 347.467C676.934 346.133 677.334 336.933 677.334 317.2L677.067 288.667L682.667 283.867C695.334 272.933 709.334 273.733 714.8 285.733C716.934 290.667 717.334 294.667 717.334 318.8C717.334 338.267 717.734 346.533 718.934 347.733C720.534 349.333 736.8 350 740.534 348.533C742.4 347.867 742.667 343.6 742.667 315.467C742.667 286 742.4 282.8 739.867 277.333C734.267 265.067 726.534 260.133 710.934 259.333C705.334 259.067 698.534 259.2 695.867 259.867Z" fill="black"/>
<path d="M886.933 259.6C884.266 260 883.5 260.605 882.5 261C881.15 261.534 879.333 262.4 876.799 263.867C871.066 267.467 869.599 267.333 869.066 263.6C868.666 260.8 867.999 260.667 857.999 260.667H847.333L846.933 318.4L846.666 376.133L858.933 375.733L871.333 375.333L871.733 360.933C871.866 353.067 872.666 346.667 873.333 346.667C873.999 346.667 877.999 347.6 882.266 348.667C892.799 351.467 903.999 351.2 912.933 348C922.933 344.533 927.5 340.5 931.5 336.5C935.5 332.5 937.199 327.2 939.333 319.067C946.266 292.4 933.466 264.667 911.999 260.133C905.466 258.667 895.866 258.533 886.933 259.6ZM905.599 279.6C910.799 284.267 912.399 289.467 912.399 302C912.533 314.667 913.073 321.955 910.5 325C905.599 330.8 900.262 331.724 893.5 332C886.967 332.267 882.037 331.295 879.199 330.8C876.362 330.304 871.999 329.2 871.999 329.2V306.667V284.133L876.266 281.867C888.399 275.6 900.133 274.667 905.599 279.6Z" fill="black"/>
<path d="M987.333 259.467C980 260.4 977 261.5 973 263.5C969 265.5 963.066 272.133 961.866 276.933C960.4 282.8 962.666 284.667 972 285.067C979.733 285.467 980.933 285.067 986.533 281.067C992 277.2 993.866 276.667 1002.8 276.267C1011.87 275.733 1013.2 276 1016.4 278.933C1019.73 281.867 1023.33 292.267 1021.6 294C1021.2 294.4 1012.27 294.667 1001.73 294.667C978.8 294.667 970.533 296.933 962.133 305.2C957.2 310.133 956.933 310.933 956.4 320.267C955.733 332.4 958 337.6 967.066 343.6C979.466 351.867 999.2 352.8 1014 345.867C1018.4 343.867 1022.4 341.867 1023.07 341.6C1023.6 341.333 1024 342.4 1024 343.867C1024 345.334 1025.2 347.2 1026.53 348C1030.13 349.867 1044.4 349.734 1046.4 347.734C1047.6 346.534 1048 337.467 1048 315.067C1048 284.8 1047.87 283.733 1044.8 277.6C1040.27 268.8 1032.93 262.533 1024.67 260.533C1020 259.467 993.2 258.667 987.333 259.467ZM1022.4 318.4L1022.93 325.333L1014.4 329.333C1007.73 332.533 1004.27 333.333 997.066 333.333C988.8 333.333 988 333.067 984.8 329.2C980.933 324.667 980.666 323.2 982.666 318C984.8 312.4 990.8 310.667 1007.33 311.067L1022 311.333L1022.4 318.4Z" fill="black"/>
<rect x="85" y="236" width="79" height="47" rx="6" stroke="black" stroke-width="8"/>
<rect x="185" y="236" width="79" height="47" rx="6" fill="black" stroke="black" stroke-width="8"/>
<rect x="185" y="303" width="79" height="47" rx="6" fill="black" stroke="black" stroke-width="8"/>
<rect x="85" y="303" width="79" height="47" rx="6" fill="black" stroke="black" stroke-width="8"/>
</svg>
