<svg width="777" height="777" viewBox="0 0 777 777" fill="none" xmlns="http://www.w3.org/2000/svg">
<g clip-path="url(#clip0_1098_2312)">
<rect width="777" height="777" fill="white"/>
<g clip-path="url(#clip1_1098_2312)">
<rect x="-293.916" y="115.189" width="1451.32" height="545.621" fill="black"/>
<path d="M-613 388V877H388H1389V388V-101H388H-613V388ZM348.116 149.172C357.305 153.476 363.757 160.713 366.69 170.688C368.058 175.187 368.449 197.486 368.058 233.476C367.472 287.657 367.276 289.418 362.975 296.459C360.433 300.371 355.155 305.652 351.245 308.195L344.011 312.694H232.571C108.033 312.694 114.289 313.476 103.145 298.611L97.6709 291.569L97.0844 234.65C96.6933 203.354 97.0844 174.796 97.6709 171.275C99.0394 163.647 109.206 151.715 117.222 148.194C121.914 146.238 146.352 145.652 231.594 145.652C333.062 145.456 340.687 145.847 348.116 149.172ZM658.387 148.194C666.794 151.52 676.961 163.451 678.329 171.275C678.916 174.796 679.307 203.354 678.916 234.65L678.329 291.569L672.855 298.611C661.711 313.476 667.967 312.694 543.429 312.694H431.989L424.755 308.195C420.845 305.652 415.567 300.371 413.025 296.459C408.724 289.418 408.528 287.657 407.942 233.476C407.551 197.486 407.942 175.187 409.31 170.688C412.243 160.713 418.695 153.476 427.884 149.172C435.313 145.847 442.938 145.456 544.015 145.456C630.43 145.456 653.304 146.043 658.387 148.194ZM352.027 358.856C355.546 361.007 360.433 366.093 362.975 370.005C367.276 377.046 367.472 378.807 368.058 432.401C368.449 467.022 367.863 490.299 366.69 495.189C363.953 505.36 358.087 512.402 348.703 517.096C341.469 520.812 336.777 521.008 232.571 521.008C145.766 521.008 122.696 520.421 117.613 518.27C109.206 514.944 99.0394 503.013 97.6709 495.189C97.0844 491.668 96.6933 463.11 97.0844 432.01C97.6709 375.873 97.6709 375.286 102.363 368.831C104.905 365.115 109.792 360.42 113.116 358.464C118.786 354.944 124.651 354.748 232.376 354.748C343.033 354.748 345.575 354.748 352.027 358.856ZM661.711 357.682C664.839 359.247 669.922 363.746 672.855 367.853L678.329 374.895L678.916 431.814C679.307 463.11 678.916 491.668 678.329 495.189C676.961 503.013 666.794 514.944 658.387 518.27C653.304 520.421 630.234 521.008 543.429 521.008C439.223 521.008 434.531 520.812 427.297 517.096C417.913 512.402 412.047 505.36 409.31 495.189C408.137 490.299 407.551 467.022 407.942 432.401C408.528 378.807 408.724 377.046 413.025 370.005C415.371 366.093 420.259 361.007 423.778 358.856C429.839 354.944 432.38 354.748 543.038 354.748C639.619 354.748 656.823 355.139 661.711 357.682ZM171.182 577.732C175.483 580.079 176.265 589.272 172.55 592.989C170.986 594.554 161.993 595.336 145.179 595.336H120.154V604.138V612.744L142.247 613.331L164.144 613.918V621.742V629.566L142.247 630.153L120.35 630.74L119.763 644.823L119.177 658.906L110.77 659.493C96.6933 660.471 96.6933 660.275 96.6933 617.634C96.6933 583.796 97.0844 579.688 100.212 577.928C104.709 575.189 166.099 575.189 171.182 577.732ZM410.288 578.71C412.438 581.057 413.025 583.991 412.047 590.446L410.874 599.052L420.454 599.639C430.034 600.226 430.034 600.226 430.034 607.072C430.034 613.918 430.034 613.918 420.845 614.505L411.461 615.092V626.241C411.461 640.911 415.371 646.974 423.973 645.605C432.771 644.432 434.922 645.801 434.922 653.038C434.922 659.493 434.726 659.688 424.755 660.862C411.852 662.427 400.512 658.906 395.038 651.473C391.324 646.388 390.933 642.671 390.346 613.722C389.76 590.446 390.346 580.666 391.91 578.71C395.038 574.798 406.378 574.994 410.288 578.71ZM505.696 577.928C517.817 580.666 525.442 587.316 528.766 598.661C534.24 616.461 525.442 635.238 509.606 639.933C505.305 641.302 494.356 642.28 485.167 642.28H468.354L467.767 650.495C467.181 658.906 467.181 658.906 458.774 659.493C444.697 660.471 444.697 660.275 444.697 618.612C444.697 587.903 445.284 581.448 447.825 578.906C450.171 576.363 455.45 575.776 473.046 575.776C485.363 575.776 500.026 576.754 505.696 577.928ZM677.547 577.732C681.066 579.688 681.262 582.231 681.262 616.852C681.262 636.999 680.675 654.994 680.089 656.754C678.72 660.275 662.493 661.253 661.32 657.928C660.929 656.95 657.019 657.537 651.74 659.297C643.92 662.231 641.574 662.231 634.144 660.08C623.196 656.754 615.571 648.344 613.029 636.803C609.706 620.96 614.985 606.681 627.106 599.052C632.189 595.923 635.904 595.336 646.657 595.727L659.756 596.51V587.316C659.756 581.644 660.733 577.732 662.297 577.145C666.403 575.385 673.637 575.776 677.547 577.732ZM197.966 598.27C199.335 601.008 200.117 601.008 205.787 598.27C209.11 596.51 215.367 595.336 219.277 595.727C225.729 596.314 226.706 597.096 227.293 601.791C228.27 609.81 224.946 612.549 214.976 612.353C200.704 612.158 198.553 615.483 197.966 639.15L197.38 658.906H187.604H177.829L177.243 629.566C177.047 613.527 177.243 599.248 177.634 597.879C179.198 594.162 195.816 594.554 197.966 598.27ZM284.185 598.857C295.72 604.529 299.044 611.18 299.044 627.61C299.044 643.845 295.916 650.104 284.185 656.95C274.996 662.427 254.664 662.427 245.279 656.95C235.113 650.886 229.052 638.172 230.421 624.872C231.398 613.136 235.504 606.485 245.279 599.639C253.491 594.162 274.019 593.576 284.185 598.857ZM330.521 598.27C331.498 600.813 332.28 600.813 337.168 598.27C349.485 591.815 367.667 596.118 373.141 606.681C376.465 613.136 376.856 618.221 376.661 641.693L376.27 659.884H366.69C354.764 659.884 354.373 658.906 354.959 634.652C355.35 622.524 354.764 616.07 353.004 614.114C349.485 610.006 340.492 610.202 335.408 614.309C331.889 617.439 331.303 620.177 330.912 638.368L330.325 658.906H320.55H310.774L310.188 629.566C309.992 613.527 310.188 599.248 310.579 597.879C312.143 594.162 329.152 594.554 330.521 598.27ZM590.742 599.248C601.299 605.507 603.254 611.962 602.668 636.999L602.081 658.906L594.456 659.493C590.351 659.884 586.049 659.297 585.072 658.319C583.703 656.95 579.989 657.341 574.319 659.297C551.64 667.121 528.375 650.3 537.368 632.696C542.06 623.894 550.662 620.177 567.281 619.982C582.139 619.786 584.485 618.026 578.425 612.158C574.319 607.854 568.258 608.246 560.242 613.136C556.332 615.483 551.249 616.852 547.534 616.461C542.256 615.874 541.474 615.092 541.474 610.006C541.474 605.703 543.038 603.16 548.121 599.835C557.114 593.771 581.162 593.38 590.742 599.248Z" fill="white"/>
<path d="M130.712 180.468C130.321 180.859 129.93 203.158 129.93 229.955V278.464H231.594H333.258V228.977V179.686H232.376C176.852 179.686 131.103 180.077 130.712 180.468Z" fill="white"/>
<path d="M468.158 610.202V625.067L483.994 624.285C497.68 623.698 500.221 623.111 503.545 619.004C508.433 613.136 508.237 604.138 503.35 599.248C500.026 595.923 496.898 595.336 483.799 595.336H468.158V610.202Z" fill="white"/>
<path d="M637.468 613.918C632.775 618.808 633.166 637.194 638.25 642.28C642.942 646.974 644.115 646.974 653.108 643.258L659.951 640.519L659.365 626.241L658.778 611.962L649.785 611.375C643.333 610.984 639.814 611.766 637.468 613.918Z" fill="white"/>
<path d="M257.596 611.767C250.167 617.243 249.19 636.217 256.228 643.258C260.529 647.366 269.913 646.975 274.606 642.28C279.102 637.781 280.08 619.786 276.17 614.309C272.455 609.615 262.68 608.246 257.596 611.767Z" fill="white"/>
<path d="M558.091 637.39C556.136 639.737 556.136 640.911 558.091 643.258C562.979 649.322 581.552 645.41 581.552 638.368C581.552 634.847 580.379 634.456 570.995 634.456C564.152 634.456 559.655 635.434 558.091 637.39Z" fill="white"/>
</g>
</g>
<defs>
<clipPath id="clip0_1098_2312">
<rect width="777" height="777" fill="white"/>
</clipPath>
<clipPath id="clip1_1098_2312">
<rect width="2002" height="978" fill="white" transform="translate(-613 -101)"/>
</clipPath>
</defs>
</svg>
