<?xml version="1.0" standalone="no"?>
<!DOCTYPE svg PUBLIC "-//W3C//DTD SVG 20010904//EN"
 "http://www.w3.org/TR/2001/REC-SVG-20010904/DTD/svg10.dtd">
<svg version="1.0" xmlns="http://www.w3.org/2000/svg"
 width="1200.000000pt" height="478.000000pt" viewBox="0 0 1200.000000 478.000000"
 preserveAspectRatio="xMidYMid meet">

<g transform="translate(0.000000,478.000000) scale(0.100000,-0.100000)"
fill="#000000" stroke="none">
<path d="M8936 4715 c-142 -122 -208 -236 -214 -372 -7 -141 47 -261 167 -376
196 -187 231 -226 261 -289 66 -139 30 -237 -154 -426 l-91 -93 114 -108 114
-107 -101 -12 c-409 -51 -740 -195 -981 -427 -204 -195 -317 -401 -383 -697
-20 -91 -23 -129 -23 -333 0 -204 3 -242 23 -334 61 -269 165 -470 336 -649
311 -324 781 -492 1381 -492 579 0 1033 154 1346 457 192 186 311 401 368 666
73 339 36 716 -100 1004 -225 475 -726 769 -1396 819 -51 4 -93 9 -93 11 0 2
28 33 63 69 l62 66 83 -76 c45 -42 86 -76 91 -76 16 0 195 189 228 241 19 30
43 85 55 122 27 91 20 157 -29 257 -32 65 -57 95 -193 230 -167 165 -198 209
-219 311 -15 70 -3 129 42 213 32 59 119 157 187 210 l35 27 -120 114 -119
113 -26 -18 c-14 -10 -52 -43 -85 -73 l-60 -55 -80 73 -80 73 -50 -40 c-28
-22 -66 -55 -85 -74 l-36 -34 -81 75 -81 74 -76 -64z m468 -532 c29 -87 73
-144 226 -293 128 -125 153 -155 181 -213 28 -60 31 -76 27 -131 -3 -36 -15
-80 -28 -106 l-23 -45 -14 59 c-25 112 -65 169 -234 336 -169 167 -198 208
-220 317 -11 56 -11 67 10 129 32 99 44 109 52 47 4 -28 14 -73 23 -100z
m-351 82 c4 -35 20 -86 46 -138 32 -67 55 -98 118 -158 203 -193 233 -227 264
-294 27 -56 31 -75 27 -123 -2 -31 -15 -79 -27 -107 l-23 -50 -17 66 c-27 107
-72 170 -238 334 -131 129 -156 160 -185 220 -41 88 -44 172 -9 253 13 28 27
52 31 52 4 0 10 -25 13 -55z m362 -1274 l39 -41 -144 0 -144 0 68 69 69 70 36
-29 c20 -15 54 -47 76 -69z m86 -872 c86 -43 140 -145 165 -314 22 -145 15
-618 -10 -725 -45 -185 -128 -270 -262 -270 -115 0 -183 41 -233 141 -58 116
-66 179 -66 524 0 343 9 413 66 526 41 83 89 120 184 142 34 9 118 -4 156 -24z"/>
<path d="M0 3660 l0 -470 680 0 680 0 0 470 0 470 -680 0 -680 0 0 -470z"/>
<path d="M1900 3660 l0 -470 680 0 680 0 0 470 0 470 -680 0 -680 0 0 -470z"/>
<path d="M3800 2095 l0 -2035 675 0 675 0 0 684 c0 425 4 687 10 691 5 3 17
-7 27 -22 10 -15 183 -324 384 -688 l365 -660 787 -3 c486 -1 787 1 787 7 0 5
-221 361 -490 791 -284 452 -488 786 -484 792 7 10 908 1191 936 1226 8 9
-145 12 -758 11 l-769 0 -380 -557 c-212 -310 -389 -558 -398 -560 -16 -3 -17
71 -17 1177 l0 1181 -675 0 -675 0 0 -2035z"/>
<path d="M10740 3555 l0 -45 110 0 110 0 0 -290 0 -290 50 0 50 0 0 290 0 290
110 0 110 0 0 45 0 45 -270 0 -270 0 0 -45z"/>
<path d="M11370 3265 l0 -336 48 3 47 3 3 245 4 245 82 -245 83 -245 38 -3
c21 -2 42 1 47 6 5 5 42 109 83 231 41 122 79 229 84 239 7 12 10 -59 11 -231
l0 -248 48 3 47 3 3 333 2 332 -74 0 -75 0 -82 -255 c-46 -140 -85 -252 -88
-249 -3 3 -42 116 -86 252 l-81 247 -72 3 -72 3 0 -336z"/>
<path d="M0 1475 l0 -1415 678 2 677 3 3 1413 2 1412 -680 0 -680 0 0 -1415z"/>
<path d="M1900 1475 l0 -1415 678 2 677 3 3 1413 2 1412 -680 0 -680 0 0
-1415z"/>
</g>
</svg>
