<svg width="98" height="33" viewBox="0 0 98 33" fill="none" xmlns="http://www.w3.org/2000/svg">
<path d="M0 21.9113V6.12184H4.11V7.87959C4.61 7.19265 5.21 6.66735 5.91 6.30367C6.61 5.94 7.4 5.75816 8.28 5.75816C9.04 5.77837 9.61 5.89959 9.99 6.12184V9.75857C9.69 9.61714 9.36 9.51612 9 9.45551C8.64 9.37469 8.27 9.33428 7.89 9.33428C7.09 9.33428 6.36 9.53633 5.7 9.94041C5.04 10.3445 4.51 10.9203 4.11 11.6679V21.9113H0ZM19.2809 22.2144C17.7209 22.2144 16.3009 21.8507 15.0209 21.1234C13.7609 20.396 12.7609 19.4161 12.0209 18.1837C11.2809 16.9512 10.9109 15.5672 10.9109 14.0317C10.9109 12.4962 11.2609 11.1122 11.9609 9.8798C12.6809 8.64735 13.6509 7.66745 14.8709 6.9401C16.0909 6.21275 17.4509 5.84908 18.9509 5.84908C20.4509 5.84908 21.7809 6.22286 22.9409 6.97041C24.1009 7.71796 25.0109 8.72816 25.6709 10.001C26.3509 11.2739 26.6909 12.7185 26.6909 14.3348V15.4258H15.1109C15.2909 16.0521 15.5809 16.6179 15.9809 17.123C16.4009 17.6281 16.9109 18.022 17.5109 18.3049C18.1309 18.5878 18.7909 18.7292 19.4909 18.7292C20.1909 18.7292 20.8309 18.6181 21.4109 18.3958C22.0109 18.1736 22.5209 17.8604 22.9409 17.4563L25.6409 19.9414C24.6809 20.7294 23.6909 21.3052 22.6709 21.6689C21.6709 22.0326 20.5409 22.2144 19.2809 22.2144ZM15.0509 12.4558H22.6409C22.5009 11.8295 22.2409 11.284 21.8609 10.8193C21.5009 10.3344 21.0609 9.96061 20.5409 9.69796C20.0409 9.4151 19.4809 9.27367 18.8609 9.27367C18.2209 9.27367 17.6409 9.405 17.1209 9.66765C16.6209 9.9303 16.1909 10.3041 15.8309 10.789C15.4709 11.2537 15.2109 11.8093 15.0509 12.4558ZM29.209 21.9113V0.697041L33.319 0V12.7589L40.0692 6.12184H44.7192L37.339 13.365L45.1692 21.9113H39.919L33.319 14.6985V21.9113H29.209ZM50.8004 22.1841C49.6804 22.1841 48.6904 21.982 47.8304 21.578C46.9704 21.1537 46.3004 20.5779 45.8204 19.8505C45.3404 19.1232 45.1004 18.2847 45.1004 17.3351C45.1004 15.8198 45.6604 14.648 46.7804 13.8196C47.9204 12.971 49.4804 12.5467 51.4604 12.5467C52.8204 12.5467 54.1004 12.7589 55.3004 13.1832V12.0315C55.3004 11.1223 55.0204 10.4354 54.4604 9.97071C53.9004 9.50602 53.0804 9.27367 52.0004 9.27367C51.3404 9.27367 50.6304 9.3848 49.8704 9.60704C49.1104 9.80908 48.2304 10.1323 47.2304 10.5768L45.7304 7.51592C46.9704 6.9502 48.1504 6.52592 49.2704 6.24306C50.4104 5.9602 51.5504 5.81878 52.6904 5.81878C54.7904 5.81878 56.4204 6.33398 57.5804 7.36439C58.7604 8.37459 59.3504 9.80908 59.3504 11.6679V21.9113H55.3004V20.79C54.6604 21.2749 53.9704 21.6285 53.2304 21.8507C52.4904 22.073 51.6804 22.1841 50.8004 22.1841ZM49.0004 17.2442C49.0004 17.8503 49.2604 18.3352 49.7804 18.6989C50.3004 19.0423 50.9904 19.2141 51.8504 19.2141C52.5304 19.2141 53.1604 19.1333 53.7404 18.9716C54.3204 18.7898 54.8404 18.5271 55.3004 18.1837V15.8804C54.8004 15.6784 54.2804 15.5268 53.7404 15.4258C53.2004 15.3248 52.6204 15.2743 52.0004 15.2743C51.0604 15.2743 50.3204 15.4561 49.7804 15.8198C49.2604 16.1633 49.0004 16.6381 49.0004 17.2442ZM69.6908 22.1235C68.2108 22.1235 66.8708 21.7598 65.6708 21.0324C64.4708 20.3051 63.5108 19.3353 62.7908 18.1231C62.0908 16.8906 61.7408 15.5167 61.7408 14.0014C61.7408 12.4861 62.0908 11.1223 62.7908 9.9101C63.5108 8.67765 64.4808 7.70786 65.7008 7.00071C66.9208 6.27337 68.2908 5.90969 69.8108 5.90969C70.5908 5.90969 71.3408 6.02082 72.0608 6.24306C72.7808 6.4451 73.4508 6.74816 74.0708 7.15224V0.697041L78.1808 0V21.9113H74.1308V20.6082C72.8508 21.6184 71.3708 22.1235 69.6908 22.1235ZM70.3508 18.5777C71.1108 18.5777 71.8008 18.4463 72.4208 18.1837C73.0608 17.921 73.6108 17.5472 74.0708 17.0623V10.9102C73.6108 10.4455 73.0608 10.0818 72.4208 9.81918C71.7808 9.55653 71.0908 9.4252 70.3508 9.4252C69.4908 9.4252 68.7108 9.62724 68.0108 10.0313C67.3308 10.4152 66.7908 10.9607 66.3908 11.6679C65.9908 12.3548 65.7908 13.1327 65.7908 14.0014C65.7908 14.8702 65.9908 15.6481 66.3908 16.335C66.7908 17.0219 67.3308 17.5674 68.0108 17.9715C68.7108 18.3756 69.4908 18.5777 70.3508 18.5777ZM89.0358 22.2144C87.4758 22.2144 86.0658 21.8507 84.8058 21.1234C83.5458 20.396 82.5458 19.4161 81.8058 18.1837C81.0658 16.9512 80.6958 15.5672 80.6958 14.0317C80.6958 12.4962 81.0558 11.1122 81.7758 9.8798C82.5158 8.62714 83.5158 7.63714 84.7758 6.9098C86.0558 6.18245 87.4758 5.81878 89.0358 5.81878C90.5958 5.81878 92.0058 6.18245 93.2658 6.9098C94.5458 7.63714 95.5458 8.62714 96.2658 9.8798C97.0058 11.1122 97.3758 12.4962 97.3758 14.0317C97.3758 15.5672 97.0058 16.9512 96.2658 18.1837C95.5458 19.4161 94.5558 20.396 93.2958 21.1234C92.0358 21.8507 90.6158 22.2144 89.0358 22.2144ZM89.0358 18.608C89.8558 18.608 90.5858 18.4059 91.2258 18.0018C91.8858 17.5978 92.4058 17.0522 92.7858 16.3653C93.1858 15.6582 93.3858 14.8803 93.3858 14.0317C93.3858 13.163 93.1858 12.3851 92.7858 11.6982C92.4058 11.0112 91.8858 10.4657 91.2258 10.0616C90.5858 9.63735 89.8558 9.4252 89.0358 9.4252C88.2358 9.4252 87.5058 9.63735 86.8458 10.0616C86.1858 10.4657 85.6658 11.0112 85.2858 11.6982C84.9058 12.3851 84.7158 13.163 84.7158 14.0317C84.7158 14.8803 84.9058 15.6582 85.2858 16.3653C85.6658 17.0522 86.1858 17.5978 86.8458 18.0018C87.5058 18.4059 88.2358 18.608 89.0358 18.608Z" fill="#0658F6"/>
<path d="M0.880682 32.2238C0.880682 32.2238 0.672348 29.2774 0.255682 28.2251H96.5057L0.880682 32.2238Z" fill="#0658F6"/>
</svg>
