<svg id="Layer_1" data-name="Layer 1" xmlns="http://www.w3.org/2000/svg" viewBox="0 0 485.18 73.9"><defs><style>.cls-1{fill:#1d1d1b;}</style></defs><path class="cls-1" d="M491.05,64.08V37.73h-31.9v1.79c0,12.71-1,18.55-3.11,24.56h-4.18V82h12l.21-7.46h19.53V82h11.94l.3-17.87Zm-13,0h-9.81a52.75,52.75,0,0,0,2.51-15.48V48h7.3Z" transform="translate(-10.69 -8.05)"/><path class="cls-1" d="M249,35.47c8.7,0,12.88-3.71,13.91-10.15L253,23.91c-.47,2.43-1.67,4-4.06,4s-3.58-1.54-4-4l-9.85,1.41C236.07,31.76,240.21,35.47,249,35.47Z" transform="translate(-10.69 -8.05)"/><path class="cls-1" d="M204.65,36.92c-11.82,0-20.39,8.78-20.39,19.23s8.49,19.23,20.26,19.23,20.34-8.78,20.34-19.23S216.37,36.92,204.65,36.92Zm0,27.42a7.9,7.9,0,0,1-7.81-8.19c0-4.51,3-8.19,7.68-8.19a7.92,7.92,0,0,1,7.8,8.19C212.32,60.67,209.34,64.34,204.65,64.34Z" transform="translate(-10.69 -8.05)"/><path class="cls-1" d="M434.21,37.73v4.48A13.82,13.82,0,0,0,423,36.92c-8.7,0-16.25,7.29-16.25,19.23s7.55,19.15,16.33,19.15c5.51,0,8.62-2.64,11.14-5.72v4.91h12.87V37.73ZM427,64.51c-4.22,0-7.55-3.45-7.55-8.32,0-5.07,3.33-8.48,7.55-8.48s7.46,3.49,7.46,8.36S431.13,64.51,427,64.51Z" transform="translate(-10.69 -8.05)"/><path class="cls-1" d="M242.77,56.24c0-2.22,0-4.86,0-6.7V37.73H230.32V74.49h11.9L254.5,56c-.05,2.09-.05,4.22-.05,6.53v12H267V37.73h-11.9Z" transform="translate(-10.69 -8.05)"/><path class="cls-1" d="M369.77,44.81c0,16.46-2.43,18.12-4.74,18.12a15.1,15.1,0,0,1-2.09-.17l-.59,11.3L348.87,54.45,362,37.73H347.12l-9.85,14.16V37.73H324.39V74.49h12.88V58.8l10.15,15.69h15.31A43.55,43.55,0,0,0,368,75c7.8,0,12.75-3.58,13.13-25.8V48h7.42V74.49H401.5V37.73H369.85Z" transform="translate(-10.69 -8.05)"/><path class="cls-1" d="M300.55,63c-6.43,0-11.47-4.86-11.47-12.36,0-6.83,4.82-12.28,11.77-12.28,4.14,0,7.25,1.7,9.85,5.33l9.77-7.13A23.41,23.41,0,0,0,300.26,26c-14.55,0-25,11.13-25,24.65,0,14.5,10.58,24.77,24.4,24.77,10.4,0,16.37-4.47,21.11-10.87l-9.94-7.25C308.19,61,305.08,63,300.55,63Z" transform="translate(-10.69 -8.05)"/><path class="cls-1" d="M23.45,76.75c11.63,0,20.43-15.15,28.31-31.69,3.8-8,7.34-16.41,10.88-23.54,3.88-7.9,7.87-13.47,12.75-13.47,4.13,0,8,3.34,11.9,8.57,8,10.86,15,29.26,15,41.32,0,10.11-5.2,18.81-15.86,18.81Z" transform="translate(-10.69 -8.05)"/><path class="cls-1" d="M51.76,45.06C43.77,29,40.15,17.13,33.08,17.13c-4.39,0-9.34,4.61-13.81,12.16a62.78,62.78,0,0,0-8.58,31.47c0,9.6,4.7,16,12.76,16C35.08,76.75,43.88,61.6,51.76,45.06Z" transform="translate(-10.69 -8.05)"/><path class="cls-1" d="M164.05,26.77s-7.59,16.46-8.66,18.59-3.2,7.12-3.2,7.12-1.66-3.88-3.11-6.9-8.79-18.81-8.79-18.81h-8.44l-9.13,47.72h12.84l4.18-23.07,11.68,24.65h1.5L164.56,51.2l4.18,23.29h12.92l-9.13-47.72Z" transform="translate(-10.69 -8.05)"/></svg>