<svg width="147" height="60" viewBox="0 0 147 60" fill="none" xmlns="http://www.w3.org/2000/svg">
<path d="M2.38086 44.6939V21.7274H8.42256V24.2841C9.15756 23.2849 10.0396 22.5208 11.0686 21.9919C12.0976 21.4629 13.2589 21.1984 14.5525 21.1984C15.6697 21.2278 16.5076 21.4041 17.0662 21.7274V27.0172C16.6252 26.8114 16.1401 26.6645 15.6109 26.5763C15.0817 26.4588 14.5378 26.4 13.9792 26.4C12.8032 26.4 11.7301 26.6939 10.7599 27.2817C9.78966 27.8694 9.01056 28.707 8.42256 29.7943V44.6939H2.38086ZM30.7237 45.1347C28.4305 45.1347 26.3431 44.6057 24.4615 43.5478C22.6093 42.4898 21.1393 41.0645 20.0515 39.2719C18.9637 37.4792 18.4198 35.4661 18.4198 33.2327C18.4198 30.9992 18.9343 28.9861 19.9633 27.1935C21.0217 25.4008 22.4476 23.9755 24.241 22.9176C26.0344 21.8596 28.0336 21.3306 30.2386 21.3306C32.4436 21.3306 34.3987 21.8743 36.1039 22.9617C37.8091 24.049 39.1468 25.5184 40.117 27.3698C41.1166 29.2212 41.6164 31.3225 41.6164 33.6735V35.2604H24.5938C24.8584 36.1714 25.2847 36.9943 25.8727 37.729C26.4901 38.4637 27.2398 39.0368 28.1218 39.4482C29.0332 39.8596 30.0034 40.0653 31.0324 40.0653C32.0614 40.0653 33.0022 39.9037 33.8548 39.5804C34.7368 39.2572 35.4865 38.8017 36.1039 38.2139L40.0729 41.8286C38.6617 42.9747 37.2064 43.8123 35.707 44.3412C34.237 44.8702 32.5759 45.1347 30.7237 45.1347ZM24.5056 30.9404H35.6629C35.4571 30.0294 35.0749 29.2359 34.5163 28.56C33.9871 27.8547 33.3403 27.311 32.5759 26.929C31.8409 26.5176 31.0177 26.3119 30.1063 26.3119C29.1655 26.3119 28.3129 26.5029 27.5485 26.8849C26.8135 27.267 26.1814 27.8106 25.6522 28.5159C25.123 29.1919 24.7408 30 24.5056 30.9404ZM45.3181 44.6939V13.8368L51.3598 12.8229V31.3812L61.2825 21.7274H68.118L57.2692 32.2629L68.7795 44.6939H61.0618L51.3598 34.2025V44.6939H45.3181ZM77.0575 45.0906C75.4111 45.0906 73.9558 44.7968 72.6916 44.209C71.4274 43.5919 70.4425 42.7543 69.7369 41.6963C69.0313 40.6384 68.6785 39.4188 68.6785 38.0376C68.6785 35.8335 69.5017 34.129 71.1481 32.9241C72.8239 31.6898 75.1171 31.0727 78.0277 31.0727C80.0269 31.0727 81.9085 31.3812 83.6725 31.9984V30.3233C83.6725 29.0008 83.2609 28.0017 82.4377 27.3257C81.6145 26.6498 80.4091 26.3119 78.8215 26.3119C77.8513 26.3119 76.8076 26.4735 75.6904 26.7968C74.5732 27.0906 73.2796 27.5608 71.8096 28.2074L69.6046 23.7551C71.4274 22.9323 73.162 22.3151 74.8084 21.9037C76.4842 21.4923 78.16 21.2866 79.8358 21.2866C82.9228 21.2866 85.3189 22.0359 87.0241 23.5347C88.7587 25.0041 89.626 27.0906 89.626 29.7943V44.6939H83.6725V43.0629C82.7317 43.7682 81.7174 44.2825 80.6296 44.6057C79.5418 44.929 78.3511 45.0906 77.0575 45.0906ZM74.4115 37.9053C74.4115 38.787 74.7937 39.4923 75.5581 40.0212C76.3225 40.5208 77.3368 40.7706 78.601 40.7706C79.6006 40.7706 80.5267 40.6531 81.3793 40.418C82.2319 40.1535 82.9963 39.7714 83.6725 39.2719V35.9217C82.9375 35.6278 82.1731 35.4074 81.3793 35.2604C80.5855 35.1135 79.7329 35.04 78.8215 35.04C77.4397 35.04 76.3519 35.3045 75.5581 35.8335C74.7937 36.3331 74.4115 37.0237 74.4115 37.9053ZM104.826 45.0025C102.651 45.0025 100.681 44.4735 98.917 43.4155C97.153 42.3576 95.7418 40.947 94.6834 39.1837C93.6544 37.391 93.1399 35.3927 93.1399 33.1886C93.1399 30.9845 93.6544 29.0008 94.6834 27.2376C95.7418 25.4449 97.1677 24.0343 98.9611 23.0057C100.754 21.9478 102.768 21.4188 105.003 21.4188C106.149 21.4188 107.252 21.5804 108.31 21.9037C109.369 22.1976 110.354 22.6384 111.265 23.2261V13.8368L117.307 12.8229V44.6939H111.353V42.7984C109.472 44.2678 107.296 45.0025 104.826 45.0025ZM105.797 39.8449C106.914 39.8449 107.928 39.6539 108.839 39.2719C109.78 38.8898 110.589 38.3461 111.265 37.6408V28.6923C110.589 28.0163 109.78 27.4874 108.839 27.1053C107.899 26.7233 106.884 26.5323 105.797 26.5323C104.532 26.5323 103.386 26.8261 102.357 27.4139C101.357 27.9723 100.563 28.7657 99.9754 29.7943C99.3874 30.7935 99.0934 31.9249 99.0934 33.1886C99.0934 34.4523 99.3874 35.5837 99.9754 36.5829C100.563 37.5821 101.357 38.3755 102.357 38.9633C103.386 39.551 104.532 39.8449 105.797 39.8449ZM133.264 45.1347C130.97 45.1347 128.898 44.6057 127.045 43.5478C125.193 42.4898 123.723 41.0645 122.635 39.2719C121.548 37.4792 121.004 35.4661 121.004 33.2327C121.004 30.9992 121.533 28.9861 122.591 27.1935C123.679 25.3714 125.149 23.9314 127.001 22.8735C128.883 21.8155 130.97 21.2866 133.264 21.2866C135.557 21.2866 137.629 21.8155 139.482 22.8735C141.363 23.9314 142.833 25.3714 143.892 27.1935C144.979 28.9861 145.523 30.9992 145.523 33.2327C145.523 35.4661 144.979 37.4792 143.892 39.2719C142.833 41.0645 141.378 42.4898 139.526 43.5478C137.674 44.6057 135.586 45.1347 133.264 45.1347ZM133.264 39.889C134.469 39.889 135.542 39.5951 136.483 39.0074C137.453 38.4196 138.217 37.6261 138.776 36.627C139.364 35.5984 139.658 34.467 139.658 33.2327C139.658 31.969 139.364 30.8376 138.776 29.8384C138.217 28.8392 137.453 28.0457 136.483 27.458C135.542 26.8408 134.469 26.5323 133.264 26.5323C132.088 26.5323 131.014 26.8408 130.044 27.458C129.074 28.0457 128.31 28.8392 127.751 29.8384C127.192 30.8376 126.913 31.969 126.913 33.2327C126.913 34.467 127.192 35.5984 127.751 36.627C128.31 37.6261 129.074 38.4196 130.044 39.0074C131.014 39.5951 132.088 39.889 133.264 39.889Z" fill="white"/>
<path d="M3.67461 59.6939C3.67461 59.6939 3.36836 55.4082 2.75586 53.8776H144.243L3.67461 59.6939Z" fill="white"/>
</svg>
