<svg width="130" height="130" viewBox="0 0 130 130" fill="none" xmlns="http://www.w3.org/2000/svg">
<path d="M102.074 19.8613C112.099 25.0094 118.624 34.8058 123.139 45.0343C127.583 55.1014 129.311 66.1218 127.259 76.9153C125.19 87.8046 120.003 98.0411 111.656 105.446C103.38 112.788 92.4231 115.536 81.4814 117.528C69.7834 119.657 57.59 121.933 46.6705 117.274C35.1144 112.344 26.4017 102.596 20.611 91.559C14.6095 80.1199 9.36929 66.619 13.7226 54.4743C17.9473 42.6883 31.7429 38.0945 42.267 31.1433C50.9642 25.3989 59.3444 19.4917 69.622 17.5529C80.542 15.493 92.2108 14.7963 102.074 19.8613Z" fill="#FAB030"/>
<path d="M31.9333 65.0002H7.13332M36.0666 81.5335H11.2666M27.7999 48.4669H3M106.333 65.0002H44.3332M102.2 81.5335H48.4666M110.466 48.4669H40.1999M40.1999 98.0668H110.466C115.116 98.0668 118.163 94.0905 118.733 89.8002L127 31.9335H23.6666L15.4 3.00024H3M52.5999 118.733C52.5999 114.17 48.8964 110.467 44.3332 110.467C39.7701 110.467 36.0666 114.17 36.0666 118.733C36.0666 123.297 39.7701 127 44.3332 127C48.8964 127 52.5999 123.297 52.5999 118.733ZM102.2 118.733C102.2 114.17 98.4963 110.467 93.9331 110.467C89.37 110.467 85.6665 114.17 85.6665 118.733C85.6665 123.297 89.37 127 93.9331 127C98.4963 127 102.2 123.297 102.2 118.733Z" stroke="#1C212B" stroke-width="5" stroke-linecap="round" stroke-linejoin="round"/>
</svg>
