<svg width="130" height="128" viewBox="0 0 130 128" fill="none" xmlns="http://www.w3.org/2000/svg">
<path d="M101.957 12.8613C111.982 18.0094 118.507 27.8058 123.022 38.0343C127.466 48.1014 129.194 59.1218 127.142 69.9153C125.073 80.8046 119.886 91.0411 111.539 98.4457C103.263 105.788 92.3059 108.536 81.3642 110.528C69.6662 112.657 57.4728 114.933 46.5533 110.274C34.9972 105.344 26.2845 95.5963 20.4938 84.559C14.4923 73.1199 9.25211 59.619 13.6054 47.4743C17.8301 35.6883 31.6258 31.0945 42.1498 24.1433C50.847 18.3989 59.2272 12.4917 69.5048 10.5529C80.4249 8.49296 92.0936 7.79635 101.957 12.8613Z" fill="#FAB030"/>
<path d="M89.8 36.7652C89.8 36.7652 85.6667 32.5446 85.6667 28.324C85.6667 24.1033 89.8 19.8827 89.8 19.8827C89.8 19.8827 93.9333 15.6621 93.9333 11.4415C93.9333 7.22086 89.8 3.00024 89.8 3.00024M69.1333 36.7652C69.1333 36.7652 65 32.5446 65 28.324C65 24.1033 69.1333 19.8827 69.1333 19.8827C69.1333 19.8827 73.2667 15.6621 73.2667 11.4415C73.2667 7.22086 69.1333 3.00024 69.1333 3.00024M44.3333 125.398H110.467M23.6667 87.4248C23.6667 87.4248 23.6667 87.4122 19.5333 87.4122C10.4028 87.4122 3 79.8531 3 70.5297C3 61.2064 10.4028 53.6472 19.5333 53.6472H122.867C124.462 53.6472 127 53.6472 127 57.8679C127 85.8379 104.792 108.515 77.4 108.515C52.8232 108.515 32.4169 90.2569 28.4861 66.3007" stroke="#1C212B" stroke-width="5" stroke-linecap="round" stroke-linejoin="round"/>
</svg>
