<svg width="130" height="130" viewBox="0 0 130 130" fill="none" xmlns="http://www.w3.org/2000/svg">
<path d="M95.9571 19.8611C105.982 25.0091 112.507 34.8055 117.022 45.034C121.466 55.1012 123.194 66.1216 121.142 76.9151C119.073 87.8043 113.886 98.0408 105.539 105.445C97.2628 112.788 86.3059 115.536 75.3642 117.527C63.6662 119.657 51.4728 121.933 40.5533 117.274C28.9972 112.344 20.2845 102.596 14.4938 91.5587C8.49227 80.1196 3.25211 66.6188 7.6054 54.474C11.8301 42.6881 25.6258 38.0942 36.1498 31.1431C44.847 25.3986 53.2272 19.4914 63.5048 17.5527C74.4249 15.4927 86.0936 14.7961 95.9571 19.8611Z" fill="#FAB030"/>
<path d="M65.0006 102.199V77.3993C65.0006 77.3993 40.2009 64.9994 44.3342 56.7328C52.6007 40.1996 65.0006 31.933 73.2672 27.7998C81.5338 48.4662 102.2 56.7328 102.2 56.7328M31.9343 64.9994H7.13453M27.801 48.4662H3.00124M4.43012 93.8882C3.50426 96.488 3 99.2863 3 102.2C3 115.894 14.1062 127 27.7998 127C41.4975 127 52.5995 115.894 52.5995 102.2C52.5995 93.6361 48.2637 85.9895 41.6711 81.5338H11.2666M52.6007 69.7866C52.6007 69.7866 59.5736 52.6003 80.2401 40.2005M127 102.199C127 88.5054 115.894 77.3993 102.2 77.3993C88.5066 77.3993 77.4005 88.5054 77.4005 102.199C77.4005 115.893 88.5066 126.999 102.2 126.999C115.894 126.999 127 115.893 127 102.199ZM93.9337 11.2666C93.9337 6.70343 90.2302 3 85.6671 3C81.1039 3 77.4005 6.70343 77.4005 11.2666C77.4005 15.8297 81.1039 19.5332 85.6671 19.5332C90.2302 19.5332 93.9337 15.8297 93.9337 11.2666Z" stroke="#1C212B" stroke-width="5" stroke-linecap="round" stroke-linejoin="round"/>
</svg>
