<svg width="150" height="150" viewBox="0 0 150 150" fill="none" xmlns="http://www.w3.org/2000/svg">
<path d="M111.074 30.8613C121.099 36.0094 127.624 45.8058 132.139 56.0343C136.583 66.1014 138.311 77.1218 136.259 87.9153C134.19 98.8046 129.003 109.041 120.656 116.446C112.38 123.788 101.423 126.536 90.4814 128.528C78.7834 130.657 66.59 132.933 55.6705 128.274C44.1144 123.344 35.4017 113.596 29.611 102.559C23.6095 91.1199 18.3693 77.619 22.7226 65.4743C26.9473 53.6883 40.7429 49.0945 51.267 42.1433C59.9642 36.3989 68.3444 30.4917 78.622 28.5529C89.542 26.493 101.211 25.7963 111.074 30.8613Z" fill="#FAB030"/>
<path fill-rule="evenodd" clip-rule="evenodd" d="M45.7272 21.4092C45.1268 21.2483 44.487 21.3326 43.9487 21.6434C43.4104 21.9542 43.0176 22.4661 42.8567 23.0665C42.4599 24.5475 42.0102 26.079 41.5499 27.6468C40.436 31.4408 39.2597 35.4478 38.6178 39.4665C35.0925 40.1521 31.5757 41.1725 28.2019 42.1514C26.6501 42.6017 25.1286 43.0432 23.6504 43.4393C23.05 43.6001 22.5381 43.9929 22.2273 44.5313C21.9165 45.0696 21.8322 45.7093 21.9931 46.3097C25.0178 57.5979 27.9077 66.3572 36.4203 74.9533C32.3126 78.8572 29.4335 82.6889 27.2131 86.9121C24.69 91.7112 23.065 96.9301 21.4099 103.107C21.2491 103.707 21.3333 104.347 21.6441 104.886C21.9549 105.424 22.4668 105.817 23.0672 105.978C24.5482 106.374 26.079 106.823 27.6455 107.283C31.3712 108.375 35.2991 109.527 39.2392 110.178C39.8901 114.118 41.0421 118.046 42.1348 121.772C42.5942 123.339 43.0432 124.869 43.44 126.35C43.775 127.601 45.0602 128.343 46.3105 128.008C57.4868 125.013 66.5689 122.279 75.0403 113.567C83.4505 121.837 92.1727 124.494 103.108 127.424C103.708 127.585 104.348 127.501 104.886 127.19C105.425 126.879 105.817 126.367 105.978 125.767C106.374 124.289 106.816 122.767 107.266 121.215C108.245 117.842 109.265 114.325 109.951 110.8C113.97 110.158 117.977 108.981 121.771 107.868C123.338 107.407 124.87 106.958 126.351 106.561C126.951 106.4 127.463 106.007 127.774 105.469C128.085 104.93 128.169 104.291 128.008 103.69C125.058 92.679 122.499 83.2555 113.643 74.9524C121.787 66.8313 124.393 57.0755 127.118 46.8767L127.425 45.7265C127.76 44.4762 127.018 43.1911 125.768 42.856C124.289 42.4599 122.766 42.0169 121.212 41.5652C117.772 40.5653 114.179 39.5209 110.579 38.8388C109.897 35.2382 108.852 31.6459 107.852 28.2062C107.401 26.6518 106.958 25.1285 106.562 23.6497C106.401 23.0493 106.008 22.5374 105.469 22.2266C104.931 21.9158 104.291 21.8316 103.691 21.9924C92.5704 24.9722 83.4682 27.6763 75.0403 36.3418C66.5635 27.238 57.0813 24.4515 45.7272 21.4092ZM45.9468 29.3274C46.2165 28.4086 46.4886 27.4818 46.7563 26.5436C57.4356 29.4691 65.3995 32.308 72.6571 40.7037V56.3951C69.2336 56.822 66.0967 58.1718 63.5033 60.1878L55.5645 52.249C54.6492 51.3337 53.1652 51.3337 52.2499 52.249C51.3346 53.1642 51.3346 54.6482 52.2499 55.5635L60.1887 63.5023C58.1727 66.0958 56.8228 69.2327 56.3959 72.6562H40.7714C32.9105 65.1588 30.0039 57.7074 27.1314 47.3402C28.0318 47.085 28.9218 46.8266 29.8047 46.5703C33.6096 45.4657 37.2809 44.4 41.0758 43.7893C42.1097 43.6229 42.9078 42.7909 43.0309 41.7509C43.5253 37.5764 44.7111 33.5369 45.9468 29.3274ZM86.4985 60.1879C83.9051 58.1719 80.7682 56.822 77.3446 56.3951V40.7349C84.5973 32.7313 92.261 29.9798 102.66 27.1277C102.917 28.0331 103.177 28.928 103.435 29.8155L103.437 29.8203C104.557 33.6728 105.637 37.387 106.236 41.227C106.392 42.2346 107.183 43.0251 108.191 43.182C112.031 43.7802 115.745 44.8604 119.597 45.9808C120.488 46.2399 121.386 46.5011 122.295 46.7591C119.522 57.0726 116.973 65.5963 109.263 72.6562H93.6058C93.1789 69.2327 91.829 66.0958 89.8131 63.5024L97.7519 55.5636C98.6672 54.6483 98.6672 53.1643 97.7519 52.249C96.8366 51.3337 95.3526 51.3337 94.4373 52.249L86.4985 60.1879ZM89.0633 75.0238L89.0535 75H89.0634C89.0634 67.339 82.6555 60.9375 75.0009 60.9375C67.2344 60.9375 60.9384 67.2335 60.9384 75C60.9384 82.7271 67.2737 89.0625 75.0009 89.0625C82.7189 89.0625 89.0505 82.7415 89.0633 75.0238ZM40.7371 77.3437H56.3959C56.8228 80.7673 58.1727 83.9042 60.1887 86.4976L52.25 94.4364C51.3347 95.3517 51.3347 96.8357 52.25 97.751C53.1653 98.6662 54.6492 98.6662 55.5645 97.751L63.5033 89.8122C66.0967 91.8282 69.2336 93.178 72.6571 93.6049V109.261C65.3739 117.248 57.7356 120.018 47.3396 122.872C47.073 121.938 46.8022 121.015 46.5338 120.099C45.3144 115.941 44.1436 111.949 43.6332 107.823C43.5013 106.756 42.6612 105.916 41.5949 105.784C37.4684 105.274 33.4763 104.103 29.3183 102.884L29.3126 102.882L29.3062 102.88C28.397 102.614 27.4786 102.344 26.5504 102.079C27.9699 97.0056 29.3793 92.8649 31.3621 89.0935C33.5032 85.0211 36.3559 81.3017 40.7371 77.3437ZM77.3446 109.228V93.6049C80.7681 93.178 83.905 91.8282 86.4984 89.8122L94.4373 97.751C95.3526 98.6663 96.8365 98.6663 97.7518 97.751C98.6671 96.8357 98.6671 95.3517 97.7518 94.4365L89.813 86.4976C91.829 83.9042 93.1789 80.7673 93.6058 77.3437H109.296C117.419 84.3857 120.04 92.2312 122.876 102.661C121.937 102.929 121.01 103.201 120.09 103.471C115.881 104.706 111.841 105.892 107.667 106.387C106.627 106.51 105.795 107.308 105.628 108.342C105.018 112.136 103.952 115.808 102.847 119.613L102.846 119.618L102.844 119.624C102.589 120.503 102.331 121.391 102.077 122.288C91.965 119.508 84.6079 116.82 77.3446 109.228Z" fill="#1C212B"/>
<path d="M73.3428 10.0615C74.2581 9.14618 75.7421 9.14618 76.6574 10.0615C81.3802 14.7843 86.059 20.3195 89.6931 26.4528C85.3255 28.2834 78.908 36.0132 75 39.5C71.1766 35.9769 64.7983 28.0323 60.4784 26.1655C64.0875 20.1466 68.6939 14.7104 73.3428 10.0615Z" stroke="#1C212B" stroke-width="4" stroke-linejoin="round"/>
<path d="M26.5321 60.2601C20.3673 63.9007 14.8046 68.5996 10.0615 73.3427C9.62193 73.7823 9.375 74.3784 9.375 75C9.375 75.6216 9.62193 76.2177 10.0615 76.6573C14.6654 81.2612 20.0413 85.8233 25.9907 89.4165C26.3746 88.5676 26.7803 87.7337 27.2122 86.9121C28.9785 83.5527 34.6133 78.0973 37.5 75C34.0229 71.0237 28.4066 64.6247 26.5321 60.2601Z" stroke="#1C212B" stroke-width="4" stroke-linejoin="round"/>
<path d="M75.0001 112.5C71.0839 115.986 64.6685 121.702 60.3013 123.537C63.9362 129.675 68.6175 135.213 73.3428 139.939C73.7824 140.378 74.3785 140.625 75.0001 140.625C75.6217 140.625 76.2178 140.378 76.6574 139.939C81.4577 135.138 86.2127 129.498 89.8712 123.245C85.4545 121.444 79.0015 115.943 75.0001 112.5Z" stroke="#1C212B" stroke-width="4" stroke-linejoin="round"/>
<path d="M111 75C114.293 78.6326 121.552 84.8207 123.304 88.913C128.481 85.4022 133.203 81.0487 137.595 76.6573C138.51 75.742 138.51 74.258 137.595 73.3427C133.062 68.8099 128.176 64.3175 122.803 60.7506C121.108 64.9471 114.158 71.2934 111 75Z" stroke="#1C212B" stroke-width="4" stroke-linejoin="round"/>
</svg>
