<svg width="126" height="125" viewBox="0 0 126 125" fill="none" xmlns="http://www.w3.org/2000/svg">
<path d="M96.9571 21.8611C106.982 27.0091 113.507 36.8055 118.022 47.034C122.466 57.1012 124.194 68.1216 122.142 78.9151C120.073 89.8043 114.886 100.041 106.539 107.445C98.2628 114.788 87.3059 117.536 76.3642 119.527C64.6662 121.657 52.4728 123.933 41.5533 119.274C29.9972 114.344 21.2845 104.596 15.4938 93.5587C9.49227 82.1196 4.25211 68.6188 8.6054 56.474C12.8301 44.6881 26.6258 40.0942 37.1498 33.1431C45.847 27.3986 54.2272 21.4914 64.5048 19.5527C75.4249 17.4927 87.0936 16.7961 96.9571 21.8611Z" fill="#FAB030"/>
<path d="M123 122H3V36H123V122Z" stroke="#1C212B" stroke-width="5" stroke-linejoin="round"/>
<path d="M41 26.5V36H29V27C29 13.7452 39.7452 3 53 3H73C86.2548 3 97 13.7452 97 27V36H85V26.5C85 19.8726 79.6274 14.5 73 14.5H53C46.3726 14.5 41 19.8726 41 26.5Z" stroke="#1C212B" stroke-width="5" stroke-linejoin="round"/>
<circle cx="63" cy="80" r="31.5" stroke="#1C212B" stroke-width="5"/>
<path d="M57.4444 74.4444V76.9444C58.8252 76.9444 59.9444 75.8252 59.9444 74.4444H57.4444ZM48 74.4444V76.9444H48L48 74.4444ZM57.4444 85.5556H59.9444C59.9444 84.1748 58.8252 83.0556 57.4444 83.0556V85.5556ZM68.5556 85.5556V83.0556C67.1748 83.0556 66.0556 84.1748 66.0556 85.5556H68.5556ZM78 74.4444V71.9444V74.4444ZM68.5556 74.4444H66.0556C66.0556 75.1075 66.3189 75.7434 66.7878 76.2122C67.2566 76.6811 67.8925 76.9444 68.5556 76.9444V74.4444ZM59.9444 65C59.9444 63.6193 61.0637 62.5 62.4444 62.5V57.5C58.3023 57.5 54.9444 60.8579 54.9444 65H59.9444ZM59.9444 74.4444V65H54.9444V74.4444H59.9444ZM48 76.9444L57.4444 76.9444V71.9444L48 71.9444L48 76.9444ZM45.5 79.4444C45.5 78.0637 46.6193 76.9444 48 76.9444V71.9444C43.8579 71.9444 40.5 75.3023 40.5 79.4444H45.5ZM45.5 80.5556V79.4444H40.5V80.5556H45.5ZM48 83.0556C46.6193 83.0556 45.5 81.9363 45.5 80.5556H40.5C40.5 84.6977 43.8579 88.0556 48 88.0556V83.0556ZM57.4444 83.0556H48V88.0556H57.4444V83.0556ZM59.9444 95V85.5556H54.9444V95H59.9444ZM62.4444 97.5C61.0637 97.5 59.9444 96.3807 59.9444 95H54.9444C54.9444 99.1421 58.3023 102.5 62.4444 102.5V97.5ZM63.5556 97.5H62.4444V102.5H63.5556V97.5ZM66.0556 95C66.0556 96.3807 64.9363 97.5 63.5556 97.5V102.5C67.6977 102.5 71.0556 99.1421 71.0556 95H66.0556ZM66.0556 85.5556V95H71.0556V85.5556H66.0556ZM78 83.0556H68.5556V88.0556H78V83.0556ZM80.5 80.5556C80.5 81.9363 79.3807 83.0556 78 83.0556V88.0556C82.1421 88.0556 85.5 84.6977 85.5 80.5556H80.5ZM80.5 79.4444V80.5556H85.5V79.4444H80.5ZM78 76.9444C79.3807 76.9444 80.5 78.0637 80.5 79.4444H85.5C85.5 75.3023 82.1421 71.9444 78 71.9444V76.9444ZM68.5556 76.9444H78V71.9444L68.5556 71.9444V76.9444ZM66.0556 65V74.4444H71.0556V65H66.0556ZM63.5556 62.5C64.9363 62.5 66.0556 63.6193 66.0556 65H71.0556C71.0556 60.8579 67.6977 57.5 63.5556 57.5V62.5ZM62.4444 62.5H63.5556V57.5H62.4444V62.5Z" fill="#1C212B"/>
</svg>
