<svg width="108" height="108" viewBox="0 0 108 108" fill="none" xmlns="http://www.w3.org/2000/svg">
<path d="M76.9969 16.8697C85.2435 21.1043 90.6102 29.1627 94.3243 37.5764C97.9798 45.8575 99.4014 54.9226 97.7138 63.8012C96.0113 72.7584 91.7446 81.1788 84.879 87.2697C78.071 93.3094 69.0581 95.5699 60.0577 97.2081C50.4351 98.9596 40.405 100.832 31.4229 96.9997C21.917 92.9443 14.7501 84.9258 9.98681 75.8468C5.05009 66.4372 0.739635 55.3316 4.32057 45.3416C7.79572 35.6467 19.1438 31.8679 27.8007 26.15C34.9548 21.4247 41.8482 16.5656 50.3024 14.9708C59.285 13.2763 68.8834 12.7033 76.9969 16.8697Z" fill="#FAB030"/>
<path d="M3 33.6V6.383C3 4.5028 4.5198 3 6.4 3H101.6C103.48 3 105 4.5028 105 6.383V60.8M71 104.993L60.8 101.583V84.6H74.4M74.4 71H60.8M105 101.6C105 103.48 103.48 105 101.6 105H88C86.1198 105 84.6 103.48 84.6 101.6V74.4C84.6 72.5198 86.1198 71 88 71H101.6C103.48 71 105 72.5198 105 74.4V101.6ZM50.6 101.6C50.6 103.48 49.0802 105 47.2 105H6.4C4.5198 105 3 103.48 3 101.6V47.2C3 45.3198 4.5198 43.8 6.4 43.8H47.2C49.0802 43.8 50.6 45.3198 50.6 47.2V101.6Z" stroke="#1C212B" stroke-width="5" stroke-linecap="round" stroke-linejoin="round"/>
</svg>
